<svg width="48" height="48" viewBox="0 0 48 48" fill="none" xmlns="http://www.w3.org/2000/svg">
<path d="M27.46 42C27.1084 42.6062 26.6037 43.1093 25.9965 43.4591C25.3892 43.8088 24.7008 43.9929 24 43.9929C23.2992 43.9929 22.6108 43.8088 22.0035 43.4591C21.3963 43.1093 20.8916 42.6062 20.54 42M36 16C36 12.8174 34.7357 9.76516 32.4853 7.51472C30.2348 5.26428 27.1826 4 24 4C20.8174 4 17.7652 5.26428 15.5147 7.51472C13.2643 9.76516 12 12.8174 12 16C12 30 6 34 6 34H42C42 34 36 30 36 16Z" stroke="#1E1E1E" stroke-width="4" stroke-linecap="round" stroke-linejoin="round"/>
</svg>
