<svg width="122" height="118" viewBox="0 0 122 118" fill="none" xmlns="http://www.w3.org/2000/svg">
<g filter="url(#filter0_d_2975_840)">
<rect width="114" height="110" rx="55" transform="matrix(-1 0 0 1 118 0)" fill="#DDDFF8"/>
<path fill-rule="evenodd" clip-rule="evenodd" d="M43.8993 44C43.8993 53.1127 51.5552 60.5 60.9993 60.5C70.4434 60.5 78.0993 53.1127 78.0993 44C78.0993 34.8873 70.4434 27.5 60.9993 27.5C51.5552 27.5 43.8993 34.8873 43.8993 44ZM49.5993 44C49.5993 50.0751 54.7033 55 60.9993 55C67.2954 55 72.3993 50.0751 72.3993 44C72.3993 37.9249 67.2954 33 60.9993 33C54.7033 33 49.5993 37.9249 49.5993 44Z" fill="#4758EE"/>
<path d="M60.9993 68.75C79.4513 68.75 95.1729 79.2781 101.162 94.0281C99.7027 95.426 98.1659 96.7482 96.5579 97.9882C92.0984 84.4462 78.1087 74.25 60.9993 74.25C43.8899 74.25 29.9002 84.4462 25.4407 97.9882C23.8327 96.7482 22.2959 95.426 20.837 94.0282C26.8257 79.2781 42.5473 68.75 60.9993 68.75Z" fill="#4758EE"/>
</g>
<defs>
<filter id="filter0_d_2975_840" x="0" y="0" width="122" height="118" filterUnits="userSpaceOnUse" color-interpolation-filters="sRGB">
<feFlood flood-opacity="0" result="BackgroundImageFix"/>
<feColorMatrix in="SourceAlpha" type="matrix" values="0 0 0 0 0 0 0 0 0 0 0 0 0 0 0 0 0 0 127 0" result="hardAlpha"/>
<feOffset dy="4"/>
<feGaussianBlur stdDeviation="2"/>
<feComposite in2="hardAlpha" operator="out"/>
<feColorMatrix type="matrix" values="0 0 0 0 0 0 0 0 0 0 0 0 0 0 0 0 0 0 0.25 0"/>
<feBlend mode="normal" in2="BackgroundImageFix" result="effect1_dropShadow_2975_840"/>
<feBlend mode="normal" in="SourceGraphic" in2="effect1_dropShadow_2975_840" result="shape"/>
</filter>
</defs>
</svg>
