<svg width="124" height="24" viewBox="0 0 124 24" fill="none" xmlns="http://www.w3.org/2000/svg">
<g clip-path="url(#clip0_2676_43)">
<path opacity="0.1" fill-rule="evenodd" clip-rule="evenodd" d="M0.851562 12.0966C0.851562 5.94573 5.83782 0.959473 11.9887 0.959473C18.1395 0.959473 23.1258 5.94573 23.1258 12.0966C23.1258 18.2474 18.1395 23.2337 11.9887 23.2337C5.83782 23.2337 0.851562 18.2474 0.851562 12.0966Z" fill="white"/>
<path fill-rule="evenodd" clip-rule="evenodd" d="M11.9892 6.15723C10.376 6.15723 10.1736 6.16428 9.53998 6.19311C8.90763 6.22207 8.476 6.32218 8.09833 6.46907C7.70766 6.62078 7.37626 6.82373 7.04611 7.15401C6.7157 7.48417 6.51276 7.81556 6.36055 8.2061C6.21329 8.5839 6.11305 9.01566 6.08459 9.64776C6.05625 10.2813 6.04883 10.4839 6.04883 12.0971C6.04883 13.7102 6.05601 13.9121 6.08471 14.5457C6.1138 15.178 6.21391 15.6096 6.36067 15.9873C6.51251 16.378 6.71545 16.7094 7.04573 17.0395C7.37577 17.3699 7.70716 17.5734 8.09758 17.7251C8.47551 17.872 8.90726 17.9721 9.53948 18.001C10.1731 18.0299 10.3754 18.0369 11.9884 18.0369C13.6017 18.0369 13.8036 18.0299 14.4371 18.001C15.0695 17.9721 15.5016 17.872 15.8795 17.7251C16.2701 17.5734 16.601 17.3699 16.931 17.0395C17.2614 16.7094 17.4644 16.378 17.6166 15.9874C17.7626 15.6096 17.8628 15.1779 17.8925 14.5458C17.921 13.9122 17.9284 13.7102 17.9284 12.0971C17.9284 10.4839 17.921 10.2815 17.8925 9.64788C17.8628 9.01553 17.7626 8.5839 17.6166 8.20623C17.4644 7.81556 17.2614 7.48417 16.931 7.15401C16.6006 6.8236 16.2702 6.62066 15.8792 6.46907C15.5005 6.32218 15.0686 6.22207 14.4363 6.19311C13.8027 6.16428 13.601 6.15723 11.9873 6.15723H11.9892ZM11.4563 7.22762C11.6144 7.22737 11.7909 7.22762 11.9892 7.22762C13.5751 7.22762 13.7631 7.23331 14.3893 7.26178C14.9685 7.28826 15.2828 7.38503 15.4922 7.46633C15.7694 7.57399 15.967 7.70269 16.1748 7.91058C16.3827 8.11848 16.5114 8.31647 16.6193 8.59366C16.7006 8.8028 16.7975 9.11711 16.8238 9.69625C16.8523 10.3224 16.8585 10.5105 16.8585 12.0957C16.8585 13.6809 16.8523 13.869 16.8238 14.4952C16.7973 15.0743 16.7006 15.3886 16.6193 15.5977C16.5116 15.8749 16.3827 16.0723 16.1748 16.2801C15.9669 16.488 15.7695 16.6167 15.4922 16.7243C15.283 16.806 14.9685 16.9025 14.3893 16.929C13.7632 16.9575 13.5751 16.9637 11.9892 16.9637C10.4031 16.9637 10.2151 16.9575 9.58896 16.929C9.00982 16.9023 8.6955 16.8055 8.486 16.7242C8.20881 16.6166 8.01081 16.4879 7.80292 16.28C7.59502 16.0721 7.46632 15.8746 7.35842 15.5972C7.27712 15.3881 7.18022 15.0738 7.15386 14.4947C7.1254 13.8685 7.11971 13.6804 7.11971 12.0942C7.11971 10.508 7.1254 10.3209 7.15386 9.69476C7.18035 9.11563 7.27712 8.80131 7.35842 8.59193C7.46608 8.31474 7.59502 8.11674 7.80292 7.90885C8.01081 7.70095 8.20881 7.57226 8.486 7.46435C8.69538 7.38268 9.00982 7.28615 9.58896 7.25955C10.1369 7.2348 10.3493 7.22737 11.4563 7.22614V7.22762ZM15.1598 8.21389C14.7663 8.21389 14.447 8.53278 14.447 8.92642C14.447 9.31994 14.7663 9.6392 15.1598 9.6392C15.5533 9.6392 15.8726 9.31994 15.8726 8.92642C15.8726 8.53291 15.5533 8.21389 15.1598 8.21389ZM11.9892 9.0467C10.3046 9.0467 8.93882 10.4125 8.93882 12.0971C8.93882 13.7816 10.3046 15.1468 11.9892 15.1468C13.6738 15.1468 15.0391 13.7816 15.0391 12.0971C15.0391 10.4125 13.6738 9.0467 11.9892 9.0467ZM11.9892 10.1171C13.0826 10.1171 13.9691 11.0035 13.9691 12.0971C13.9691 13.1905 13.0826 14.077 11.9892 14.077C10.8956 14.077 10.0092 13.1905 10.0092 12.0971C10.0092 11.0035 10.8956 10.1171 11.9892 10.1171Z" fill="white"/>
<path opacity="0.1" fill-rule="evenodd" clip-rule="evenodd" d="M34.2627 12.0966C34.2627 5.94573 39.249 0.959473 45.3998 0.959473C51.5507 0.959473 56.5369 5.94573 56.5369 12.0966C56.5369 18.2474 51.5507 23.2337 45.3998 23.2337C39.249 23.2337 34.2627 18.2474 34.2627 12.0966Z" fill="white"/>
<path fill-rule="evenodd" clip-rule="evenodd" d="M51.34 12.0888C51.34 12.4905 51.2991 12.8916 51.2188 13.2826C51.1405 13.6644 51.0245 14.0391 50.8725 14.3974C50.724 14.7493 50.5398 15.0884 50.3246 15.4047C50.1126 15.719 49.8684 16.0138 49.6001 16.2826C49.3312 16.5502 49.0354 16.7937 48.7213 17.0066C48.4039 17.2204 48.0643 17.4043 47.7122 17.5535C47.3534 17.7046 46.9778 17.8205 46.5964 17.8987C46.2049 17.9792 45.8023 18.0203 45.4 18.0203C44.9974 18.0203 44.5948 17.9792 44.2038 17.8987C43.8219 17.8205 43.4462 17.7046 43.0878 17.5535C42.7356 17.4043 42.3957 17.2204 42.0784 17.0066C41.7643 16.7938 41.4684 16.5502 41.2001 16.2826C40.9316 16.0138 40.6873 15.719 40.475 15.4047C40.261 15.0884 40.0765 14.7493 39.9274 14.3974C39.7754 14.0391 39.6591 13.6643 39.5805 13.2826C39.5011 12.8916 39.4604 12.4905 39.4604 12.0888C39.4604 11.6868 39.501 11.2848 39.5806 10.8946C39.6592 10.5129 39.7754 10.1376 39.9275 9.77987C40.0765 9.4277 40.261 9.08826 40.4751 8.77198C40.6874 8.45745 40.9316 8.16318 41.2002 7.89411C41.4685 7.62648 41.7643 7.38351 42.0784 7.17093C42.3957 6.9563 42.7357 6.77241 43.0878 6.62295C43.4463 6.47145 43.8219 6.35532 44.2039 6.27771C44.5948 6.19778 44.9974 6.15723 45.4 6.15723C45.8023 6.15723 46.2049 6.19778 46.5964 6.27771C46.9778 6.35535 47.3534 6.47147 47.7122 6.62295C48.0643 6.77239 48.404 6.9563 48.7213 7.17093C49.0354 7.38351 49.3313 7.62648 49.6001 7.89411C49.8684 8.16318 50.1126 8.45745 50.3246 8.77198C50.5398 9.08826 50.724 9.42772 50.8725 9.77987C51.0245 10.1376 51.1405 10.5129 51.2188 10.8946C51.2991 11.2848 51.34 11.6868 51.34 12.0888ZM43.2356 7.50717C41.8211 8.17419 40.7653 9.47577 40.4361 11.0444C40.5698 11.0455 42.6837 11.0722 45.1192 10.426C44.2412 8.8684 43.3032 7.59727 43.2356 7.50717ZM45.5394 11.206C42.9276 11.9868 40.4213 11.9306 40.3314 11.9272C40.33 11.9816 40.3274 12.0343 40.3274 12.0888C40.3274 13.39 40.819 14.5764 41.627 15.4734C41.6253 15.4707 43.0135 13.0115 45.7509 12.1276C45.817 12.1056 45.8843 12.0859 45.951 12.0668C45.8237 11.7789 45.6848 11.4904 45.5394 11.206ZM48.75 8.28714C47.8569 7.50079 46.6843 7.02381 45.4 7.02381C44.9878 7.02381 44.5878 7.07363 44.2047 7.16572C44.2807 7.26768 45.2335 8.52986 46.101 10.1205C48.015 9.40394 48.7375 8.30567 48.75 8.28714ZM46.2968 12.9061C46.2855 12.9098 46.2742 12.9131 46.2632 12.9171C43.2702 13.959 42.2929 16.0586 42.2823 16.0816C43.1434 16.7503 44.2236 17.1538 45.4 17.1538C46.1025 17.1538 46.7716 17.0109 47.3804 16.7523C47.3053 16.3098 47.0106 14.7586 46.2968 12.9061ZM48.2346 16.2895C49.3735 15.522 50.1825 14.3033 50.4081 12.8916C50.3037 12.858 48.8845 12.4094 47.2472 12.6715C47.9126 14.4973 48.1829 15.9843 48.2346 16.2895ZM46.4914 10.8752C46.6092 11.1168 46.7232 11.3626 46.8284 11.6097C46.8659 11.6984 46.9024 11.7853 46.9381 11.8721C48.6807 11.6532 50.3974 12.0216 50.4708 12.0366C50.4592 10.8358 50.0291 9.73381 49.3173 8.87103C49.3078 8.88461 48.4942 10.0585 46.4914 10.8752Z" fill="white"/>
<path opacity="0.1" fill-rule="evenodd" clip-rule="evenodd" d="M67.6743 12.0966C67.6743 5.94573 72.6606 0.959473 78.8114 0.959473C84.9623 0.959473 89.9485 5.94573 89.9485 12.0966C89.9485 18.2474 84.9623 23.2337 78.8114 23.2337C72.6606 23.2337 67.6743 18.2474 67.6743 12.0966Z" fill="white"/>
<path fill-rule="evenodd" clip-rule="evenodd" d="M78.4777 10.0122L78.501 10.3976L78.1115 10.3504C76.6937 10.1695 75.4551 9.55606 74.4034 8.52578L73.8893 8.01458L73.7568 8.39208C73.4764 9.2336 73.6556 10.1223 74.2398 10.72C74.5514 11.0503 74.4813 11.0975 73.9438 10.9009C73.7568 10.838 73.5932 10.7908 73.5777 10.8144C73.5231 10.8695 73.7101 11.5851 73.8581 11.8683C74.0606 12.2615 74.4735 12.6469 74.9254 12.8749L75.3071 13.0558L74.8552 13.0637C74.419 13.0637 74.4034 13.0716 74.4502 13.2367C74.606 13.7479 75.2214 14.2906 75.9069 14.5265L76.3899 14.6917L75.9692 14.9434C75.346 15.3051 74.6137 15.5096 73.8815 15.5253C73.5309 15.5332 73.2427 15.5647 73.2427 15.5883C73.2427 15.6669 74.1931 16.1073 74.7462 16.2804C76.4055 16.7916 78.3764 16.5713 79.8565 15.6984C80.9082 15.0771 81.9599 13.8423 82.4507 12.6469C82.7155 12.0098 82.9804 10.8459 82.9804 10.2875C82.9804 9.9257 83.0038 9.87851 83.44 9.44595C83.6971 9.19428 83.9386 8.91902 83.9853 8.84037C84.0632 8.69094 84.0554 8.69094 83.6581 8.82464C82.996 9.06058 82.9025 9.02912 83.2297 8.67521C83.4712 8.42354 83.7594 7.96739 83.7594 7.83369C83.7594 7.8101 83.6426 7.84942 83.5101 7.9202C83.3699 7.99885 83.0583 8.11682 82.8246 8.1876L82.4039 8.3213L82.0222 8.06177C81.8119 7.9202 81.5158 7.76291 81.36 7.71572C80.9627 7.60562 80.3551 7.62134 79.9968 7.74718C79.023 8.10109 78.4076 9.01339 78.4777 10.0122Z" fill="white"/>
<path opacity="0.1" fill-rule="evenodd" clip-rule="evenodd" d="M101.085 12.0966C101.085 5.94573 106.072 0.959473 112.223 0.959473C118.373 0.959473 123.36 5.94573 123.36 12.0966C123.36 18.2474 118.373 23.2337 112.223 23.2337C106.072 23.2337 101.085 18.2474 101.085 12.0966Z" fill="white"/>
<path fill-rule="evenodd" clip-rule="evenodd" d="M116.864 8.2681C117.375 8.40836 117.777 8.82165 117.914 9.34649C118.162 10.2977 118.162 12.2824 118.162 12.2824C118.162 12.2824 118.162 14.267 117.914 15.2183C117.777 15.7432 117.375 16.1565 116.864 16.2968C115.937 16.5516 112.223 16.5516 112.223 16.5516C112.223 16.5516 108.508 16.5516 107.581 16.2968C107.07 16.1565 106.668 15.7432 106.531 15.2183C106.283 14.267 106.283 12.2824 106.283 12.2824C106.283 12.2824 106.283 10.2977 106.531 9.34649C106.668 8.82165 107.07 8.40836 107.581 8.2681C108.508 8.01318 112.223 8.01318 112.223 8.01318C112.223 8.01318 115.937 8.01318 116.864 8.2681ZM111.109 10.6118V14.3242L114.079 12.4681L111.109 10.6118Z" fill="white"/>
</g>
<defs>
<clipPath id="clip0_2676_43">
<rect width="122.508" height="22.2742" fill="white" transform="translate(0.851562 0.959473)"/>
</clipPath>
</defs>
</svg>
